<svg xmlns="http://www.w3.org/2000/svg" viewBox="0 0 1200 900" role="img" aria-labelledby="title desc"><title id="title">A softly lit romantic memory</title><desc id="desc">A warm pink and amber abstract birthday memory illustration.</desc><defs><linearGradient id="bg" x1="0" y1="0" x2="1" y2="1"><stop offset="0" stop-color="#fbcfe8"/><stop offset="0.55" stop-color="#fb7185"/><stop offset="1" stop-color="#f59e0b"/></linearGradient><radialGradient id="glow" cx="50%" cy="42%" r="48%"><stop offset="0" stop-color="#fff7ed" stop-opacity="0.95"/><stop offset="1" stop-color="#fff7ed" stop-opacity="0"/></radialGradient></defs><rect width="1200" height="900" fill="url(#bg)"/><circle cx="600" cy="350" r="360" fill="url(#glow)"/><circle cx="465" cy="390" r="116" fill="#fff1f2" opacity="0.9"/><circle cx="735" cy="390" r="116" fill="#fff1f2" opacity="0.9"/><path d="M600 665C490 560 380 500 380 370c0-78 58-132 132-132 44 0 72 20 88 52 16-32 44-52 88-52 74 0 132 54 132 132 0 130-110 190-220 295Z" fill="#be123c" opacity="0.88"/><path d="M600 595c-66-63-129-101-129-178 0-42 31-72 71-72 28 0 47 15 58 40 11-25 30-40 58-40 40 0 71 30 71 72 0 77-63 115-129 178Z" fill="#fb7185"/><circle cx="425" cy="150" r="8" fill="#fff" opacity="0.85"/><circle cx="820" cy="190" r="6" fill="#fff" opacity="0.75"/><circle cx="930" cy="500" r="9" fill="#fff" opacity="0.65"/></svg>
